<svg width="459" height="54" viewBox="0 0 459 54" fill="none" xmlns="http://www.w3.org/2000/svg">
<path fill-rule="evenodd" clip-rule="evenodd" d="M270 54V0H306C333 6.83069e-05 333 36 306 36H288V54H270ZM288 24.9902H301C314 24.9902 314 11 301 11H288V24.9902Z" fill="#18368C"/>
<path fill-rule="evenodd" clip-rule="evenodd" d="M405 0H387L414 36V54H431V36L459 0H441L423 23L405 0Z" fill="#18368C"/>
<path fill-rule="evenodd" clip-rule="evenodd" d="M252 0H234V54H252V0Z" fill="#18368C"/>
<path fill-rule="evenodd" clip-rule="evenodd" d="M144 54V0H162L198 34V0H216V54H198L162 20V54L144 54Z" fill="#18368C"/>
<path fill-rule="evenodd" clip-rule="evenodd" d="M81 0H63L90 36V54H107V36L135 0H117L99 23L81 0Z" fill="#18368C"/>
<path fill-rule="evenodd" clip-rule="evenodd" d="M369 0L396 54L378 54L360 18L342 54L324 54L351 0H369Z" fill="#18368C"/>
<path fill-rule="evenodd" clip-rule="evenodd" d="M45 0.00038147H27L0 54H18L36 18L54 53.9902L72 54L45 0.00038147Z" fill="#18368C"/>
</svg>
